<svg xmlns="http://www.w3.org/2000/svg" version="1.1" xmlns:xlink="http://www.w3.org/1999/xlink" xmlns:svgjs="http://svgjs.com/svgjs" width="1440" height="560" preserveAspectRatio="none" viewBox="0 0 1440 560"><g mask="url(&quot;#SvgjsMask1066&quot;)" fill="none"><rect width="1440" height="560" x="0" y="0" fill="#0e2a47"></rect><path d="M129.12 100.15L208.79 146.15L208.79 238.15L129.12 284.15L49.44 238.15L49.44 146.15zM129.12 376.15L208.79 422.15L208.79 514.15L129.12 560.15L49.44 514.15L49.44 422.15zM447.82 100.15L527.5 146.15L527.5 238.15L447.82 284.15L368.15 238.15L368.15 146.15zM447.82 376.15L527.5 422.15L527.5 514.15L447.82 560.15L368.15 514.15L368.15 422.15zM527.5 -37.85L607.18 8.15L607.18 100.15L527.5 146.15L447.82 100.15L447.82 8.15zM607.18 100.15L686.85 146.15L686.85 238.15L607.18 284.15L527.5 238.15L527.5 146.15zM846.21 238.15L925.88 284.15L925.88 376.15L846.21 422.15L766.53 376.15L766.53 284.15zM1244.59 100.15L1324.27 146.15L1324.27 238.15L1244.59 284.15L1164.91 238.15L1164.91 146.15zM1403.94 376.15L1483.62 422.15L1483.62 514.15L1403.94 560.15L1324.27 514.15L1324.27 422.15zM1483.62 -37.85L1563.3 8.15L1563.3 100.15L1483.62 146.15L1403.94 100.15L1403.94 8.15z" stroke="url(#SvgjsLinearGradient1067)" stroke-width="2"></path><path d="M119.92 100.15 a9.2 9.2 0 1 0 18.4 0 a9.2 9.2 0 1 0 -18.4 0zM199.59 146.15 a9.2 9.2 0 1 0 18.4 0 a9.2 9.2 0 1 0 -18.4 0zM199.59 238.15 a9.2 9.2 0 1 0 18.4 0 a9.2 9.2 0 1 0 -18.4 0zM119.92 284.15 a9.2 9.2 0 1 0 18.4 0 a9.2 9.2 0 1 0 -18.4 0zM40.24 238.15 a9.2 9.2 0 1 0 18.4 0 a9.2 9.2 0 1 0 -18.4 0zM40.24 146.15 a9.2 9.2 0 1 0 18.4 0 a9.2 9.2 0 1 0 -18.4 0zM119.92 376.15 a9.2 9.2 0 1 0 18.4 0 a9.2 9.2 0 1 0 -18.4 0zM199.59 422.15 a9.2 9.2 0 1 0 18.4 0 a9.2 9.2 0 1 0 -18.4 0zM199.59 514.15 a9.2 9.2 0 1 0 18.4 0 a9.2 9.2 0 1 0 -18.4 0zM119.92 560.15 a9.2 9.2 0 1 0 18.4 0 a9.2 9.2 0 1 0 -18.4 0zM40.24 514.15 a9.2 9.2 0 1 0 18.4 0 a9.2 9.2 0 1 0 -18.4 0zM40.24 422.15 a9.2 9.2 0 1 0 18.4 0 a9.2 9.2 0 1 0 -18.4 0zM438.62 100.15 a9.2 9.2 0 1 0 18.4 0 a9.2 9.2 0 1 0 -18.4 0zM518.3 146.15 a9.2 9.2 0 1 0 18.4 0 a9.2 9.2 0 1 0 -18.4 0zM518.3 238.15 a9.2 9.2 0 1 0 18.4 0 a9.2 9.2 0 1 0 -18.4 0zM438.62 284.15 a9.2 9.2 0 1 0 18.4 0 a9.2 9.2 0 1 0 -18.4 0zM358.95 238.15 a9.2 9.2 0 1 0 18.4 0 a9.2 9.2 0 1 0 -18.4 0zM358.95 146.15 a9.2 9.2 0 1 0 18.4 0 a9.2 9.2 0 1 0 -18.4 0zM438.62 376.15 a9.2 9.2 0 1 0 18.4 0 a9.2 9.2 0 1 0 -18.4 0zM518.3 422.15 a9.2 9.2 0 1 0 18.4 0 a9.2 9.2 0 1 0 -18.4 0zM518.3 514.15 a9.2 9.2 0 1 0 18.4 0 a9.2 9.2 0 1 0 -18.4 0zM438.62 560.15 a9.2 9.2 0 1 0 18.4 0 a9.2 9.2 0 1 0 -18.4 0zM358.95 514.15 a9.2 9.2 0 1 0 18.4 0 a9.2 9.2 0 1 0 -18.4 0zM358.95 422.15 a9.2 9.2 0 1 0 18.4 0 a9.2 9.2 0 1 0 -18.4 0zM518.3 -37.85 a9.2 9.2 0 1 0 18.4 0 a9.2 9.2 0 1 0 -18.4 0zM597.98 8.15 a9.2 9.2 0 1 0 18.4 0 a9.2 9.2 0 1 0 -18.4 0zM597.98 100.15 a9.2 9.2 0 1 0 18.4 0 a9.2 9.2 0 1 0 -18.4 0zM438.62 8.15 a9.2 9.2 0 1 0 18.4 0 a9.2 9.2 0 1 0 -18.4 0zM677.65 146.15 a9.2 9.2 0 1 0 18.4 0 a9.2 9.2 0 1 0 -18.4 0zM677.65 238.15 a9.2 9.2 0 1 0 18.4 0 a9.2 9.2 0 1 0 -18.4 0zM597.98 284.15 a9.2 9.2 0 1 0 18.4 0 a9.2 9.2 0 1 0 -18.4 0zM837.01 238.15 a9.2 9.2 0 1 0 18.4 0 a9.2 9.2 0 1 0 -18.4 0zM916.68 284.15 a9.2 9.2 0 1 0 18.4 0 a9.2 9.2 0 1 0 -18.4 0zM916.68 376.15 a9.2 9.2 0 1 0 18.4 0 a9.2 9.2 0 1 0 -18.4 0zM837.01 422.15 a9.2 9.2 0 1 0 18.4 0 a9.2 9.2 0 1 0 -18.4 0zM757.33 376.15 a9.2 9.2 0 1 0 18.4 0 a9.2 9.2 0 1 0 -18.4 0zM757.33 284.15 a9.2 9.2 0 1 0 18.4 0 a9.2 9.2 0 1 0 -18.4 0zM1235.39 100.15 a9.2 9.2 0 1 0 18.4 0 a9.2 9.2 0 1 0 -18.4 0zM1315.07 146.15 a9.2 9.2 0 1 0 18.4 0 a9.2 9.2 0 1 0 -18.4 0zM1315.07 238.15 a9.2 9.2 0 1 0 18.4 0 a9.2 9.2 0 1 0 -18.4 0zM1235.39 284.15 a9.2 9.2 0 1 0 18.4 0 a9.2 9.2 0 1 0 -18.4 0zM1155.71 238.15 a9.2 9.2 0 1 0 18.4 0 a9.2 9.2 0 1 0 -18.4 0zM1155.71 146.15 a9.2 9.2 0 1 0 18.4 0 a9.2 9.2 0 1 0 -18.4 0zM1394.74 376.15 a9.2 9.2 0 1 0 18.4 0 a9.2 9.2 0 1 0 -18.4 0zM1474.42 422.15 a9.2 9.2 0 1 0 18.4 0 a9.2 9.2 0 1 0 -18.4 0zM1474.42 514.15 a9.2 9.2 0 1 0 18.4 0 a9.2 9.2 0 1 0 -18.4 0zM1394.74 560.15 a9.2 9.2 0 1 0 18.4 0 a9.2 9.2 0 1 0 -18.4 0zM1315.07 514.15 a9.2 9.2 0 1 0 18.4 0 a9.2 9.2 0 1 0 -18.4 0zM1315.07 422.15 a9.2 9.2 0 1 0 18.4 0 a9.2 9.2 0 1 0 -18.4 0zM1474.42 -37.85 a9.2 9.2 0 1 0 18.4 0 a9.2 9.2 0 1 0 -18.4 0zM1554.1 8.15 a9.2 9.2 0 1 0 18.4 0 a9.2 9.2 0 1 0 -18.4 0zM1554.1 100.15 a9.2 9.2 0 1 0 18.4 0 a9.2 9.2 0 1 0 -18.4 0zM1474.42 146.15 a9.2 9.2 0 1 0 18.4 0 a9.2 9.2 0 1 0 -18.4 0zM1394.74 100.15 a9.2 9.2 0 1 0 18.4 0 a9.2 9.2 0 1 0 -18.4 0zM1394.74 8.15 a9.2 9.2 0 1 0 18.4 0 a9.2 9.2 0 1 0 -18.4 0z" fill="url(#SvgjsLinearGradient1067)"></path><path d="M73.43 41.73L116.73 66.73L116.73 116.73L73.43 141.73L30.13 116.73L30.13 66.73zM203.34 416.73L246.64 441.73L246.64 491.73L203.34 516.73L160.04 491.73L160.04 441.73zM289.94 -33.27L333.25 -8.27L333.25 41.73L289.94 66.73L246.64 41.73L246.64 -8.27zM333.25 191.73L376.55 216.73L376.55 266.73L333.25 291.73L289.94 266.73L289.94 216.73zM333.25 341.73L376.55 366.73L376.55 416.73L333.25 441.73L289.94 416.73L289.94 366.73zM376.55 -33.27L419.85 -8.27L419.85 41.73L376.55 66.73L333.25 41.73L333.25 -8.27zM376.55 266.73L419.85 291.73L419.85 341.73L376.55 366.73L333.25 341.73L333.25 291.73zM506.46 191.73L549.76 216.73L549.76 266.73L506.46 291.73L463.16 266.73L463.16 216.73zM593.06 491.73L636.37 516.73L636.37 566.73L593.06 591.73L549.76 566.73L549.76 516.73zM679.67 41.73L722.97 66.73L722.97 116.73L679.67 141.73L636.37 116.73L636.37 66.73zM852.88 191.73L896.18 216.73L896.18 266.73L852.88 291.73L809.58 266.73L809.58 216.73zM939.48 41.73L982.79 66.73L982.79 116.73L939.48 141.73L896.18 116.73L896.18 66.73zM896.18 116.73L939.48 141.73L939.48 191.73L896.18 216.73L852.88 191.73L852.88 141.73zM939.48 341.73L982.79 366.73L982.79 416.73L939.48 441.73L896.18 416.73L896.18 366.73zM896.18 416.73L939.48 441.73L939.48 491.73L896.18 516.73L852.88 491.73L852.88 441.73zM1199.3 191.73L1242.6 216.73L1242.6 266.73L1199.3 291.73L1156 266.73L1156 216.73zM1242.6 -33.27L1285.9 -8.27L1285.9 41.73L1242.6 66.73L1199.3 41.73L1199.3 -8.27zM1285.9 341.73L1329.21 366.73L1329.21 416.73L1285.9 441.73L1242.6 416.73L1242.6 366.73zM1459.11 41.73L1502.42 66.73L1502.42 116.73L1459.11 141.73L1415.81 116.73L1415.81 66.73zM1459.11 341.73L1502.42 366.73L1502.42 416.73L1459.11 441.73L1415.81 416.73L1415.81 366.73z" stroke="rgba(6, 80, 156, 0.93)" stroke-width="2"></path><path d="M68.43 41.73 a5 5 0 1 0 10 0 a5 5 0 1 0 -10 0zM111.73 66.73 a5 5 0 1 0 10 0 a5 5 0 1 0 -10 0zM111.73 116.73 a5 5 0 1 0 10 0 a5 5 0 1 0 -10 0zM68.43 141.73 a5 5 0 1 0 10 0 a5 5 0 1 0 -10 0zM25.13 116.73 a5 5 0 1 0 10 0 a5 5 0 1 0 -10 0zM25.13 66.73 a5 5 0 1 0 10 0 a5 5 0 1 0 -10 0zM198.34 416.73 a5 5 0 1 0 10 0 a5 5 0 1 0 -10 0zM241.64 441.73 a5 5 0 1 0 10 0 a5 5 0 1 0 -10 0zM241.64 491.73 a5 5 0 1 0 10 0 a5 5 0 1 0 -10 0zM198.34 516.73 a5 5 0 1 0 10 0 a5 5 0 1 0 -10 0zM155.04 491.73 a5 5 0 1 0 10 0 a5 5 0 1 0 -10 0zM155.04 441.73 a5 5 0 1 0 10 0 a5 5 0 1 0 -10 0zM284.94 -33.27 a5 5 0 1 0 10 0 a5 5 0 1 0 -10 0zM328.25 -8.27 a5 5 0 1 0 10 0 a5 5 0 1 0 -10 0zM328.25 41.73 a5 5 0 1 0 10 0 a5 5 0 1 0 -10 0zM284.94 66.73 a5 5 0 1 0 10 0 a5 5 0 1 0 -10 0zM241.64 41.73 a5 5 0 1 0 10 0 a5 5 0 1 0 -10 0zM241.64 -8.27 a5 5 0 1 0 10 0 a5 5 0 1 0 -10 0zM328.25 191.73 a5 5 0 1 0 10 0 a5 5 0 1 0 -10 0zM371.55 216.73 a5 5 0 1 0 10 0 a5 5 0 1 0 -10 0zM371.55 266.73 a5 5 0 1 0 10 0 a5 5 0 1 0 -10 0zM328.25 291.73 a5 5 0 1 0 10 0 a5 5 0 1 0 -10 0zM284.94 266.73 a5 5 0 1 0 10 0 a5 5 0 1 0 -10 0zM284.94 216.73 a5 5 0 1 0 10 0 a5 5 0 1 0 -10 0zM328.25 341.73 a5 5 0 1 0 10 0 a5 5 0 1 0 -10 0zM371.55 366.73 a5 5 0 1 0 10 0 a5 5 0 1 0 -10 0zM371.55 416.73 a5 5 0 1 0 10 0 a5 5 0 1 0 -10 0zM328.25 441.73 a5 5 0 1 0 10 0 a5 5 0 1 0 -10 0zM284.94 416.73 a5 5 0 1 0 10 0 a5 5 0 1 0 -10 0zM284.94 366.73 a5 5 0 1 0 10 0 a5 5 0 1 0 -10 0zM371.55 -33.27 a5 5 0 1 0 10 0 a5 5 0 1 0 -10 0zM414.85 -8.27 a5 5 0 1 0 10 0 a5 5 0 1 0 -10 0zM414.85 41.73 a5 5 0 1 0 10 0 a5 5 0 1 0 -10 0zM371.55 66.73 a5 5 0 1 0 10 0 a5 5 0 1 0 -10 0zM414.85 291.73 a5 5 0 1 0 10 0 a5 5 0 1 0 -10 0zM414.85 341.73 a5 5 0 1 0 10 0 a5 5 0 1 0 -10 0zM501.46 191.73 a5 5 0 1 0 10 0 a5 5 0 1 0 -10 0zM544.76 216.73 a5 5 0 1 0 10 0 a5 5 0 1 0 -10 0zM544.76 266.73 a5 5 0 1 0 10 0 a5 5 0 1 0 -10 0zM501.46 291.73 a5 5 0 1 0 10 0 a5 5 0 1 0 -10 0zM458.16 266.73 a5 5 0 1 0 10 0 a5 5 0 1 0 -10 0zM458.16 216.73 a5 5 0 1 0 10 0 a5 5 0 1 0 -10 0zM588.06 491.73 a5 5 0 1 0 10 0 a5 5 0 1 0 -10 0zM631.37 516.73 a5 5 0 1 0 10 0 a5 5 0 1 0 -10 0zM631.37 566.73 a5 5 0 1 0 10 0 a5 5 0 1 0 -10 0zM588.06 591.73 a5 5 0 1 0 10 0 a5 5 0 1 0 -10 0zM544.76 566.73 a5 5 0 1 0 10 0 a5 5 0 1 0 -10 0zM544.76 516.73 a5 5 0 1 0 10 0 a5 5 0 1 0 -10 0zM674.67 41.73 a5 5 0 1 0 10 0 a5 5 0 1 0 -10 0zM717.97 66.73 a5 5 0 1 0 10 0 a5 5 0 1 0 -10 0zM717.97 116.73 a5 5 0 1 0 10 0 a5 5 0 1 0 -10 0zM674.67 141.73 a5 5 0 1 0 10 0 a5 5 0 1 0 -10 0zM631.37 116.73 a5 5 0 1 0 10 0 a5 5 0 1 0 -10 0zM631.37 66.73 a5 5 0 1 0 10 0 a5 5 0 1 0 -10 0zM847.88 191.73 a5 5 0 1 0 10 0 a5 5 0 1 0 -10 0zM891.18 216.73 a5 5 0 1 0 10 0 a5 5 0 1 0 -10 0zM891.18 266.73 a5 5 0 1 0 10 0 a5 5 0 1 0 -10 0zM847.88 291.73 a5 5 0 1 0 10 0 a5 5 0 1 0 -10 0zM804.58 266.73 a5 5 0 1 0 10 0 a5 5 0 1 0 -10 0zM804.58 216.73 a5 5 0 1 0 10 0 a5 5 0 1 0 -10 0zM934.48 41.73 a5 5 0 1 0 10 0 a5 5 0 1 0 -10 0zM977.79 66.73 a5 5 0 1 0 10 0 a5 5 0 1 0 -10 0zM977.79 116.73 a5 5 0 1 0 10 0 a5 5 0 1 0 -10 0zM934.48 141.73 a5 5 0 1 0 10 0 a5 5 0 1 0 -10 0zM891.18 116.73 a5 5 0 1 0 10 0 a5 5 0 1 0 -10 0zM891.18 66.73 a5 5 0 1 0 10 0 a5 5 0 1 0 -10 0zM934.48 191.73 a5 5 0 1 0 10 0 a5 5 0 1 0 -10 0zM847.88 141.73 a5 5 0 1 0 10 0 a5 5 0 1 0 -10 0zM934.48 341.73 a5 5 0 1 0 10 0 a5 5 0 1 0 -10 0zM977.79 366.73 a5 5 0 1 0 10 0 a5 5 0 1 0 -10 0zM977.79 416.73 a5 5 0 1 0 10 0 a5 5 0 1 0 -10 0zM934.48 441.73 a5 5 0 1 0 10 0 a5 5 0 1 0 -10 0zM891.18 416.73 a5 5 0 1 0 10 0 a5 5 0 1 0 -10 0zM891.18 366.73 a5 5 0 1 0 10 0 a5 5 0 1 0 -10 0zM934.48 491.73 a5 5 0 1 0 10 0 a5 5 0 1 0 -10 0zM891.18 516.73 a5 5 0 1 0 10 0 a5 5 0 1 0 -10 0zM847.88 491.73 a5 5 0 1 0 10 0 a5 5 0 1 0 -10 0zM847.88 441.73 a5 5 0 1 0 10 0 a5 5 0 1 0 -10 0zM1194.3 191.73 a5 5 0 1 0 10 0 a5 5 0 1 0 -10 0zM1237.6 216.73 a5 5 0 1 0 10 0 a5 5 0 1 0 -10 0zM1237.6 266.73 a5 5 0 1 0 10 0 a5 5 0 1 0 -10 0zM1194.3 291.73 a5 5 0 1 0 10 0 a5 5 0 1 0 -10 0zM1151 266.73 a5 5 0 1 0 10 0 a5 5 0 1 0 -10 0zM1151 216.73 a5 5 0 1 0 10 0 a5 5 0 1 0 -10 0zM1237.6 -33.27 a5 5 0 1 0 10 0 a5 5 0 1 0 -10 0zM1280.9 -8.27 a5 5 0 1 0 10 0 a5 5 0 1 0 -10 0zM1280.9 41.73 a5 5 0 1 0 10 0 a5 5 0 1 0 -10 0zM1237.6 66.73 a5 5 0 1 0 10 0 a5 5 0 1 0 -10 0zM1194.3 41.73 a5 5 0 1 0 10 0 a5 5 0 1 0 -10 0zM1194.3 -8.27 a5 5 0 1 0 10 0 a5 5 0 1 0 -10 0zM1280.9 341.73 a5 5 0 1 0 10 0 a5 5 0 1 0 -10 0zM1324.21 366.73 a5 5 0 1 0 10 0 a5 5 0 1 0 -10 0zM1324.21 416.73 a5 5 0 1 0 10 0 a5 5 0 1 0 -10 0zM1280.9 441.73 a5 5 0 1 0 10 0 a5 5 0 1 0 -10 0zM1237.6 416.73 a5 5 0 1 0 10 0 a5 5 0 1 0 -10 0zM1237.6 366.73 a5 5 0 1 0 10 0 a5 5 0 1 0 -10 0zM1454.11 41.73 a5 5 0 1 0 10 0 a5 5 0 1 0 -10 0zM1497.42 66.73 a5 5 0 1 0 10 0 a5 5 0 1 0 -10 0zM1497.42 116.73 a5 5 0 1 0 10 0 a5 5 0 1 0 -10 0zM1454.11 141.73 a5 5 0 1 0 10 0 a5 5 0 1 0 -10 0zM1410.81 116.73 a5 5 0 1 0 10 0 a5 5 0 1 0 -10 0zM1410.81 66.73 a5 5 0 1 0 10 0 a5 5 0 1 0 -10 0zM1454.11 341.73 a5 5 0 1 0 10 0 a5 5 0 1 0 -10 0zM1497.42 366.73 a5 5 0 1 0 10 0 a5 5 0 1 0 -10 0zM1497.42 416.73 a5 5 0 1 0 10 0 a5 5 0 1 0 -10 0zM1454.11 441.73 a5 5 0 1 0 10 0 a5 5 0 1 0 -10 0zM1410.81 416.73 a5 5 0 1 0 10 0 a5 5 0 1 0 -10 0zM1410.81 366.73 a5 5 0 1 0 10 0 a5 5 0 1 0 -10 0z" fill="rgba(6, 80, 156, 0.93)"></path></g><defs><mask id="SvgjsMask1066"><rect width="1440" height="560" fill="#ffffff"></rect></mask><linearGradient x1="720" y1="560" x2="720" y2="0" gradientUnits="userSpaceOnUse" id="SvgjsLinearGradient1067"><stop stop-color="rgba(158, 0, 129, 1)" offset="0"></stop><stop stop-color="#03305d" offset="1"></stop></linearGradient></defs></svg>